<svg xmlns="http://www.w3.org/2000/svg" xmlns:xlink="http://www.w3.org/1999/xlink" id="Capa_1" width="700" height="207.833" x="0" y="0" enable-background="new 0 0 700 207.833" version="1.1" viewBox="0 0 700 207.833" xml:space="preserve"><path fill="#211915" d="M422.397-74.149v0.17c-0.87-0.12-1.76-0.17-2.66-0.17H422.397z" opacity=".1"/><path fill="#211915" d="M415.08,37.993v0.17h-2.66C413.32,38.163,414.21,38.113,415.08,37.993z" opacity=".1"/><g><g><path fill="#E3443F" d="M285.693,146.84l21.799,0.033c0,0,0-6.78,0-10.502c0-38.455-31.083-69.68-69.402-69.68 c-38.315,0-69.401,31.225-69.401,69.68c0,38.491,31.086,69.714,69.401,69.714c8.938,0,21.698-2.152,31.154-6.432 c11.022-4.971,18.115-12.17,18.115-12.17l-15.646-14.499l-0.173-0.067c-8.52,8.203-19.959,13.209-32.509,13.209 c-22.812,0-41.864-16.479-46.526-38.489c-0.067-0.278-0.102-0.519-0.139-0.797l-0.485-0.178h0.452L285.693,146.84z M192.61,126.737c0.071-0.277,0.105-0.52,0.139-0.798c4.693-22.011,23.749-38.489,46.557-38.489 c12.554,0,23.993,5.006,32.513,13.209c6.954,6.677,11.925,15.477,14.013,25.386c0.034,0.244,0.068,0.451,0.139,0.692 l-93.361,0.176V126.737z"/><g><path fill="#E3443F" d="M285.693,148.34c7.267,0.011,14.533,0.022,21.799,0.033c0.818,0.001,1.5-0.684,1.5-1.5 c0-9.672,0.061-19.098-2.302-28.55c-2.523-10.092-7.571-19.402-14.092-27.45c-13.534-16.701-34.578-25.88-55.906-25.668 c-21.41,0.213-41.662,10.954-54.731,27.711c-13.236,16.97-17.574,39.37-12.796,60.21c5.591,24.386,24.728,43.965,48.372,51.418 c23.439,7.388,53.289,1.6,70.884-16c0.562-0.562,0.6-1.565,0-2.121c-2.852-2.643-5.704-5.285-8.556-7.929 c-2.245-2.08-5.002-5.884-7.925-7.023c-0.497-0.194-1.096,0.047-1.459,0.386c-14.497,13.519-35.478,16.551-53.042,7.26 c-7.323-3.874-13.264-9.951-17.609-16.938c-2.354-3.785-3.997-7.948-5.22-12.219c-0.558-1.946-0.255-3.984-2.329-4.744 c-0.133,0.982-0.266,1.964-0.399,2.946C223.151,148.162,254.422,148.28,285.693,148.34c1.935,0.004,1.935-2.996,0-3 c-31.271-0.06-62.542-0.178-93.813-0.178c-1.772,0-1.938,2.383-0.399,2.946c-0.112-0.041-0.537-0.576-0.113,1.295 c0.409,1.808,0.995,3.57,1.603,5.317c0.941,2.705,2.209,5.295,3.583,7.802c2.861,5.221,6.856,9.802,11.347,13.673 c9.08,7.828,20.871,11.608,32.76,11.402c6.603-0.114,13.042-1.936,19.016-4.647c3.281-1.489,6.292-3.509,9.141-5.695 c0.918-0.705,1.784-1.464,2.655-2.226c0.125-0.109-1.456-1.572-0.148-0.361c4.991,4.625,9.982,9.251,14.974,13.876 c0-0.707,0-1.414,0-2.121c-16.46,16.465-43.312,21.522-65.393,15.957c-22.795-5.746-40.852-23.934-47.796-46.16 c-7.188-23.006-0.891-48.469,15.168-66.169c16.128-17.775,41.072-25.198,64.386-20.285C269.99,73.417,285.133,84.363,294.883,99 c9.795,14.703,11.109,30.745,11.109,47.873c0.5-0.5,1-1,1.5-1.5c-7.267-0.011-14.533-0.022-21.799-0.033 C283.758,145.337,283.758,148.337,285.693,148.34z"/><path fill="#E3443F" d="M194.056,127.136c3.52-20.177,20.823-35.862,41.02-37.995c23.743-2.507,44.865,15.188,49.449,37.995 c0.482-0.633,0.964-1.266,1.446-1.898c-31.12,0.059-62.241,0.117-93.361,0.176c0.5,0.5,1,1,1.5,1.5c0-0.059,0-0.117,0-0.176 c0-1.935-3-1.935-3,0c0,0.059,0,0.117,0,0.176c0,0.816,0.682,1.502,1.5,1.5c31.12-0.059,62.241-0.117,93.361-0.176 c1.027-0.002,1.637-0.951,1.446-1.898c-4.934-24.547-27.263-42.087-52.341-40.198c-21.419,1.613-40.232,19.1-43.912,40.198 C190.833,128.23,193.724,129.039,194.056,127.136z"/></g></g><g><path fill="#136CA8" d="M546.494,146.84l21.8,0.033c0,0,0-6.78,0-10.502c0-38.455-31.083-69.68-69.402-69.68 c-38.314,0-69.401,31.225-69.401,69.68c0,38.491,31.087,69.714,69.401,69.714c8.938,0,21.698-2.152,31.155-6.432 c11.022-4.971,18.114-12.17,18.114-12.17l-15.646-14.499l-0.173-0.067c-8.518,8.203-19.959,13.209-32.509,13.209 c-22.811,0-41.863-16.479-46.525-38.489c-0.069-0.278-0.103-0.519-0.139-0.797l-0.487-0.178h0.452L546.494,146.84z M453.412,126.737c0.071-0.277,0.104-0.52,0.14-0.798c4.692-22.011,23.749-38.489,46.556-38.489 c12.554,0,23.994,5.006,32.513,13.209c6.955,6.677,11.926,15.477,14.015,25.386c0.033,0.244,0.067,0.451,0.138,0.692l-93.36,0.176 V126.737z"/><g><path fill="#136CA8" d="M546.494,148.34c7.267,0.011,14.533,0.022,21.8,0.033c0.817,0.001,1.5-0.684,1.5-1.5 c0-9.672,0.061-19.098-2.302-28.55c-2.523-10.092-7.571-19.402-14.093-27.45c-13.534-16.701-34.578-25.88-55.906-25.668 c-21.41,0.213-41.661,10.954-54.73,27.711c-13.236,16.97-17.575,39.37-12.796,60.21c5.591,24.386,24.728,43.965,48.371,51.418 c23.438,7.388,53.291,1.601,70.884-16c0.562-0.562,0.6-1.565,0-2.121c-2.852-2.643-5.704-5.285-8.556-7.929 c-2.244-2.08-5.003-5.884-7.926-7.023c-0.496-0.193-1.096,0.047-1.459,0.386c-13.388,12.488-32.487,16.21-49.428,9.04 c-13.968-5.911-24.643-19.538-27.238-34.455c-0.092-0.531-0.583-0.879-1.048-1.048c-0.162-0.06-0.324-0.118-0.487-0.178 c-0.133,0.982-0.266,1.964-0.398,2.946C483.952,148.162,515.224,148.28,546.494,148.34c1.935,0.004,1.935-2.996,0-3 c-31.271-0.06-62.542-0.178-93.813-0.178c-1.771,0-1.939,2.385-0.398,2.946c-0.108-0.039-0.536-0.579-0.112,1.295 c0.41,1.808,0.995,3.57,1.604,5.317c0.941,2.705,2.209,5.295,3.582,7.802c2.861,5.221,6.857,9.802,11.348,13.673 c9.079,7.828,20.87,11.608,32.76,11.402c6.603-0.114,13.041-1.936,19.017-4.647c3.28-1.489,6.292-3.509,9.141-5.695 c0.918-0.705,1.783-1.464,2.654-2.226c0.125-0.109-1.456-1.572-0.149-0.361c4.991,4.625,9.983,9.251,14.975,13.876 c0-0.707,0-1.414,0-2.121c-16.459,16.466-43.313,21.522-65.393,15.957c-22.796-5.746-40.853-23.934-47.797-46.16 c-7.188-23.007-0.891-48.469,15.169-66.169c16.128-17.775,41.072-25.198,64.386-20.285c17.325,3.651,32.469,14.598,42.22,29.234 c9.795,14.703,11.108,30.745,11.108,47.873c0.5-0.5,1-1,1.5-1.5c-7.267-0.011-14.533-0.022-21.8-0.033 C544.56,145.337,544.56,148.337,546.494,148.34z"/><path fill="#136CA8" d="M454.858,127.136c3.531-20.177,20.813-35.861,41.02-37.995c23.707-2.503,44.911,15.181,49.448,37.995 c0.482-0.633,0.964-1.266,1.446-1.898c-31.12,0.059-62.24,0.117-93.36,0.176c0.5,0.5,1,1,1.5,1.5c0-0.059,0-0.117,0-0.176 c0-1.935-3-1.935-3,0c0,0.059,0,0.117,0,0.176c0,0.816,0.683,1.502,1.5,1.5c31.12-0.059,62.24-0.117,93.36-0.176 c1.028-0.002,1.635-0.951,1.446-1.898c-4.883-24.554-27.3-42.085-52.341-40.198c-21.429,1.614-40.22,19.101-43.912,40.198 C451.635,128.23,454.525,129.039,454.858,127.136z"/></g></g><g><polygon fill="#093" points="653.332 134.806 698.534 206.085 674.196 206.085 641.164 153.996 608.131 206.085 583.792 206.085 628.994 134.806 583.792 63.525 608.131 63.525 641.164 115.613 674.196 63.525 698.534 63.525"/><g><path fill="#093" d="M652.037,135.563c15.067,23.76,30.135,47.52,45.202,71.279c0.432-0.752,0.863-1.505,1.295-2.257 c-7.708,0-15.416,0-23.125,0c-2.104,0,0.043,0.681-0.096,0.462c-0.443-0.699-0.887-1.397-1.33-2.097 c-1.891-2.981-3.781-5.963-5.672-8.944c-8.617-13.589-17.234-27.178-25.853-40.767c-0.613-0.968-1.977-0.968-2.59,0 c-8.467,13.351-16.934,26.701-25.4,40.053c-1.959,3.089-3.918,6.178-5.877,9.267c-0.493,0.778-0.986,1.556-1.48,2.334 c-0.708,1.116,1.968-0.308,0.228-0.308c-7.849,0-15.698,0-23.547,0c0.432,0.752,0.863,1.505,1.295,2.257 c15.067-23.76,30.135-47.52,45.202-71.279c0.277-0.437,0.277-1.077,0-1.514c-15.067-23.761-30.135-47.521-45.202-71.28 c-0.432,0.752-0.863,1.505-1.295,2.257c7.709,0,15.417,0,23.126,0c2.104,0-0.043-0.681,0.096-0.462 c0.443,0.699,0.887,1.397,1.33,2.097c1.891,2.981,3.781,5.963,5.672,8.944c8.618,13.588,17.235,27.177,25.854,40.766 c0.613,0.968,1.977,0.968,2.59,0c8.467-13.351,16.934-26.701,25.399-40.052c1.959-3.089,3.918-6.178,5.877-9.267 c0.493-0.778,0.986-1.556,1.479-2.334c0.709-1.116-1.967,0.308-0.227,0.308c7.849,0,15.697,0,23.546,0 c-0.432-0.752-0.863-1.505-1.295-2.257c-15.067,23.76-30.135,47.52-45.202,71.28c-1.04,1.639,1.558,3.143,2.59,1.514 c15.067-23.76,30.135-47.52,45.202-71.28c0.616-0.972-0.189-2.257-1.295-2.257c-7.849,0-15.697,0-23.546,0 c-3.63,0-6.766,8.121-8.389,10.68c-8.91,14.051-17.82,28.101-26.73,42.151c0.863,0,1.727,0,2.59,0 c-8.91-14.051-17.82-28.101-26.73-42.151c-1.746-2.753-3.492-5.506-5.238-8.26c-0.76-1.197-1.218-2.42-2.813-2.42 c-7.962,0-15.923,0-23.885,0c-1.105,0-1.911,1.285-1.295,2.257c13.313,20.995,26.628,41.99,39.941,62.985 c1.742,2.747,3.484,5.495,5.228,8.243c-0.698-1.101,0.337-1.942-0.926,0.05c-1.091,1.721-2.183,3.441-3.274,5.162 c-7.974,12.575-15.948,25.15-23.923,37.725c-5.682,8.96-11.364,17.921-17.046,26.881c-0.616,0.972,0.189,2.257,1.295,2.257 c7.849,0,15.698,0,23.547,0c3.63,0,6.766-8.121,8.39-10.681c8.91-14.05,17.82-28.101,26.73-42.151c-0.863,0-1.727,0-2.59,0 c8.91,14.051,17.82,28.102,26.73,42.151c1.746,2.754,3.492,5.507,5.238,8.261c0.759,1.197,1.217,2.42,2.813,2.42 c7.961,0,15.923,0,23.884,0c1.105,0,1.911-1.285,1.295-2.257c-15.067-23.76-30.135-47.52-45.202-71.279 C653.595,132.42,650.997,133.924,652.037,135.563z"/></g></g><g><path fill="#FC0" d="M417.364,184.937v19.994c0,0-12.516-1.097-24.413-5.65c-9.722-3.722-18.666-10.547-23.035-14.344 c-3.43-2.98-9.679-8.057-13.691-15.211c-5.439-9.685-8.257-13.691-8.257-21.515c0-17.381,0-68.889,0-68.889h-32.594V58.459h32.594 V2.104h21.949v56.355h47.448v20.863h-47.448c0,0-0.218,50.199,0,68.889c0.082,6.974,6.974,16.489,15.428,23.253 C398.384,181.895,417.364,184.937,417.364,184.937z"/><g><path fill="#FC0" d="M415.864,184.937c0,6.665,0,13.329,0,19.994c0.5-0.5,1-1,1.5-1.5 c-17.307-1.599-33.205-8.257-46.388-19.555c-7.175-6.148-12.228-12.675-16.858-20.924c-3.771-6.72-4.651-12.645-4.651-20.184 c0-21.148,0-42.298,0-63.446c0-0.817-0.682-1.5-1.5-1.5c-10.865,0-21.729,0-32.594,0c0.5,0.5,1,1,1.5,1.5 c0-6.954,0-13.909,0-20.863c-0.5,0.5-1,1-1.5,1.5c10.865,0,21.729,0,32.594,0c0.818,0,1.5-0.683,1.5-1.5 c0-18.785,0-37.57,0-56.355c-0.5,0.5-1,1-1.5,1.5c7.316,0,14.632,0,21.949,0c-0.5-0.5-1-1-1.5-1.5c0,18.785,0,37.57,0,56.355 c0,0.817,0.683,1.5,1.5,1.5c15.816,0,31.632,0,47.448,0c-0.5-0.5-1-1-1.5-1.5c0,6.954,0,13.909,0,20.863c0.5-0.5,1-1,1.5-1.5 c-15.816,0-31.632,0-47.448,0c-0.82,0-1.496,0.683-1.5,1.5c-0.088,20.353-0.156,40.706-0.061,61.059 c0.023,4.781-0.413,9.715,1.521,14.211c3.268,7.595,9.13,13.856,15.607,18.86c8.819,6.814,20.517,11.124,31.481,12.931 c1.892,0.312,2.702-2.579,0.797-2.893c-11.099-1.829-22.446-6.201-31.358-13.087c-6.276-4.85-12.256-11.587-14.563-19.299 c-1.42-4.748-0.49-11.005-0.505-15.919c-0.057-18.621,0-37.242,0.08-55.863c-0.5,0.5-1,1-1.5,1.5c15.816,0,31.632,0,47.448,0 c0.817,0,1.5-0.683,1.5-1.5c0-6.954,0-13.909,0-20.863c0-0.817-0.683-1.5-1.5-1.5c-15.816,0-31.632,0-47.448,0 c0.5,0.5,1,1,1.5,1.5c0-18.785,0-37.57,0-56.355c0-0.817-0.683-1.5-1.5-1.5c-7.316,0-14.633,0-21.949,0 c-0.818,0-1.5,0.683-1.5,1.5c0,18.785,0,37.57,0,56.355c0.5-0.5,1-1,1.5-1.5c-10.865,0-21.729,0-32.594,0 c-0.818,0-1.5,0.683-1.5,1.5c0,6.954,0,13.909,0,20.863c0,0.817,0.682,1.5,1.5,1.5c10.865,0,21.729,0,32.594,0 c-0.5-0.5-1-1-1.5-1.5c0,22.734,0,45.469,0,68.203c0,8.113,3.618,14.417,7.53,21.306c4.222,7.434,9.96,13.099,16.479,18.535 c13.389,11.168,29.561,17.464,46.889,19.064c0.815,0.075,1.5-0.739,1.5-1.5c0-6.665,0-13.329,0-19.994 C418.864,183.002,415.864,183.002,415.864,184.937z"/></g></g><g><path fill="#136CA8" d="M105.894,148.713c28.652-10.536,49.097-38.073,49.097-70.409c0-38.315-28.72-69.921-65.786-74.444 c-3.025-0.414-6.119-0.592-9.249-0.592H2v202.817h21.731v-52.747h61.056l33.902,52.747h25.663l-38.248-57.372H105.894z M78.529,133.485H23.314V23.122h55.215c3.511,0,6.92,0.278,10.259,0.975c25.555,4.797,44.923,27.259,44.923,54.207 c0,26.98-19.368,49.442-44.923,54.207C85.449,133.206,82.04,133.485,78.529,133.485z"/><g><path fill="#146CA8" d="M106.293,150.159c20.819-7.88,37.056-23.927,45.209-44.636c8.285-21.041,5.975-45.244-4.897-64.868 C136.137,21.761,117.386,8.337,96.45,3.573C84.571,0.87,71.853,1.768,59.745,1.768c-19.248,0-38.497,0-57.745,0 c-0.818,0-1.5,0.683-1.5,1.5c0,49.085,0,98.171,0,147.256c0,18.521,0,37.041,0,55.562c0,0.817,0.682,1.5,1.5,1.5 c7.244,0,14.488,0,21.731,0c0.818,0,1.5-0.683,1.5-1.5c0-17.582,0-35.165,0-52.747c-0.5,0.5-1,1-1.5,1.5c11.5,0,23,0,34.5,0 c7.024,0,14.048,0,21.072,0c1.654,0,3.309,0,4.962,0c1.189,0-0.401-0.163-0.729-0.674c0.271,0.421,0.541,0.841,0.811,1.262 c7.377,11.478,14.754,22.955,22.131,34.434c3.219,5.008,6.438,10.017,9.657,15.024c1.936,3.013,3.096,2.701,6.75,2.701 c7.156,0,14.311,0,21.467,0c1.086,0,1.938-1.293,1.295-2.257c-6.742-10.113-13.484-20.227-20.227-30.341 c-4.412-6.618-8.825-13.236-13.237-19.854c-1.091-1.637-3.831-7.92-6.29-7.92c-1.935,0-1.935,3,0,3 c-0.82,0-1.428-1.258-0.718-0.192c0.426,0.639,0.851,1.276,1.276,1.915c1.444,2.166,2.889,4.332,4.333,6.499 c4.382,6.573,8.765,13.147,13.147,19.722c6.375,9.562,12.749,19.124,19.124,28.686c0.432-0.752,0.864-1.505,1.295-2.257 c-6.039,0-12.078,0-18.116,0c-2.451,0-4.901,0-7.352,0c-0.241,0,1.519,1.395,0.828,0.32c-0.405-0.63-0.81-1.26-1.214-1.89 c-7.662-11.921-15.324-23.842-22.985-35.763c-2.917-4.537-5.833-9.075-8.75-13.613c-1.395-2.17-2.831-1.802-5.289-1.802 c-14.456,0-28.912,0-43.368,0c-4.792,0-9.583,0-14.375,0c-0.818,0-1.5,0.683-1.5,1.5c0,17.582,0,35.165,0,52.747 c0.5-0.5,1-1,1.5-1.5c-7.244,0-14.488,0-21.731,0c0.5,0.5,1,1,1.5,1.5c0-49.085,0-98.171,0-147.256c0-18.521,0-37.041,0-55.562 c-0.5,0.5-1,1-1.5,1.5c24.499,0,48.998,0,73.497,0c18.672,0,36.006,4.586,50.792,16.425 c18.913,15.144,28.607,39.047,26.973,63.023c-1.93,28.326-21.479,53.101-47.766,63.051 C103.704,147.944,104.48,150.846,106.293,150.159z"/><path fill="#146CA8" d="M78.529,131.985c-18.405,0-36.81,0-55.215,0c0.5,0.5,1,1,1.5,1.5c0-36.788,0-73.575,0-110.363 c-0.5,0.5-1,1-1.5,1.5c11.347,0,22.694,0,34.041,0c14.782,0,29.858-1.29,43.699,4.954c22.631,10.21,34.728,35.52,30.063,59.577 C126.283,114.079,103.498,131.644,78.529,131.985c-1.933,0.026-1.936,3.026,0,3c22.614-0.31,42.862-13.499,52.041-34.213 c8.875-20.026,4.552-43.544-9.55-59.956c-11.902-13.85-28.949-19.194-46.673-19.194c-14.559,0-29.118,0-43.677,0 c-2.452,0-4.904,0-7.355,0c-0.818,0-1.5,0.683-1.5,1.5c0,36.788,0,73.575,0,110.363c0,0.817,0.682,1.5,1.5,1.5 c18.405,0,36.81,0,55.215,0C80.463,134.985,80.463,131.985,78.529,131.985z"/></g></g></g></svg>